HIERARCHY
ROOT root
{
	OFFSET 0.000000 0.000000 0.000000
	CHANNELS 6 Xposition Yposition Zposition Zrotation Yrotation Xrotation
	JOINT lhip
	{
		OFFSET 0.058581 -0.082280 -0.017664
		CHANNELS 3 Zrotation Yrotation Xrotation
		JOINT lknee
		{
			OFFSET 0.043451 -0.386469 0.008037
			CHANNELS 3 Zrotation Yrotation Xrotation
			JOINT lankle
			{
				OFFSET -0.014790 -0.426874 -0.037428
				CHANNELS 3 Zrotation Yrotation Xrotation
				JOINT ltoe
				{
					OFFSET 0.041054 -0.060286 0.122042
					CHANNELS 3 Zrotation Yrotation Xrotation
					End Site
					{
						OFFSET 0.000000 0.000000 0.000000
					}
				}
			}
		}
	}
	JOINT rhip
	{
		OFFSET -0.060310 -0.090513 -0.013543
		CHANNELS 3 Zrotation Yrotation Xrotation
		JOINT rknee
		{
			OFFSET -0.043257 -0.383688 -0.004843
			CHANNELS 3 Zrotation Yrotation Xrotation
			JOINT rankle
			{
				OFFSET 0.019056 -0.420046 -0.034562
				CHANNELS 3 Zrotation Yrotation Xrotation
				JOINT rtoe
				{
					OFFSET -0.034840 -0.062106 0.130323
					CHANNELS 3 Zrotation Yrotation Xrotation
					End Site
					{
						OFFSET 0.000000 0.000000 0.000000
					}
				}
			}
		}
	}
	JOINT lowerback
	{
		OFFSET 0.004439 0.124404 -0.038385
		CHANNELS 3 Zrotation Yrotation Xrotation
		JOINT upperback
		{
			OFFSET 0.004488 0.137956 0.026820
			CHANNELS 3 Zrotation Yrotation Xrotation
			JOINT chest
			{
				OFFSET -0.002265 0.056032 0.002855
				CHANNELS 3 Zrotation Yrotation Xrotation
				JOINT lowerneck
				{
					OFFSET -0.013390 0.211636 -0.033468
					CHANNELS 3 Zrotation Yrotation Xrotation
					JOINT upperneck
					{
						OFFSET 0.010113 0.088937 0.050410
						CHANNELS 3 Zrotation Yrotation Xrotation
						End Site
						{
							OFFSET 0.000000 0.000000 0.000000
						}
					}
				}
				JOINT lclavicle
				{
					OFFSET 0.071702 0.114000 -0.018898
					CHANNELS 3 Zrotation Yrotation Xrotation
					JOINT lshoulder
					{
						OFFSET 0.122921 0.045205 -0.019046
						CHANNELS 3 Zrotation Yrotation Xrotation
						JOINT lelbow
						{
							OFFSET 0.255332 -0.015649 -0.022946
							CHANNELS 3 Zrotation Yrotation Xrotation
							JOINT lwrist
							{
								OFFSET 0.265709 0.012698 -0.007375
								CHANNELS 3 Zrotation Yrotation Xrotation
								End Site
								{
									OFFSET 0.000000 0.000000 0.000000
								}
							}
						}
					}
				}
				JOINT rclavicle
				{
					OFFSET -0.082954 0.112472 -0.023707
					CHANNELS 3 Zrotation Yrotation Xrotation
					JOINT rshoulder
					{
						OFFSET -0.113228 0.046853 -0.008472
						CHANNELS 3 Zrotation Yrotation Xrotation
						JOINT relbow
						{
							OFFSET -0.260127 -0.014369 -0.031269
							CHANNELS 3 Zrotation Yrotation Xrotation
							JOINT rwrist
							{
								OFFSET -0.269108 0.006794 -0.006027
								CHANNELS 3 Zrotation Yrotation Xrotation
								End Site
								{
									OFFSET 0.000000 0.000000 0.000000
								}
							}
						}
					}
				}
			}
		}
	}
}
MOTION
Frames: 10
Frame Time: 0.033333
-2.052233 0.641173 1.009267 35.175092 -4.672489 90.022129 1.496358 -2.386047 -8.253002 -4.258805 -3.536115 15.755324 2.577302 7.383663 -8.840785 0.000000 -0.000000 0.000000 -2.143629 -10.965979 -2.560579 -5.467537 -14.553232 10.013019 -0.062292 -21.517104 -8.361139 0.000000 -0.000000 0.000000 0.796995 3.576896 8.662179 -1.540070 0.595584 -3.745362 2.281726 1.493527 0.293702 -3.419057 16.428228 -9.264006 -5.050837 24.042290 -5.116627 -24.238377 -2.504331 -1.835343 -45.856255 -13.029995 4.215888 10.725576 -28.419456 -3.702019 14.226163 -6.938892 -12.330285 19.914064 4.269227 6.999649 41.731712 3.481647 10.112669 -9.459934 21.768545 -1.309783 -4.931279 4.404906 0.024300 
-2.058436 0.644843 1.008644 41.342588 -4.422920 90.131391 2.052893 0.514286 -6.912384 -3.621676 2.186450 15.702501 2.785596 9.683848 -9.443874 0.000000 -0.000000 0.000000 -1.540571 -11.316532 -2.987980 -5.658625 -16.446341 10.981187 -0.770040 -22.520656 -8.108813 0.000000 -0.000000 0.000000 0.207902 2.920282 8.347965 -1.021671 0.495376 -3.558366 2.726556 1.017717 0.141000 -2.943652 14.320994 -9.467718 -4.948466 22.746082 -4.730778 -24.158788 -1.636974 -1.315215 -46.324701 -12.421881 3.108461 11.806904 -28.010249 -5.284414 12.687286 -6.145155 -13.830777 20.166099 4.240478 6.192909 40.806117 5.386677 9.387183 -10.885942 21.019539 -2.342132 -4.039318 3.967515 1.601836 
-2.063050 0.649555 1.007972 47.316228 -4.093652 90.528568 2.828527 2.732162 -6.588028 -3.176935 6.239987 18.001773 3.234087 11.302941 -10.220269 0.000000 -0.000000 0.000000 -1.087271 -11.639475 -3.655069 -5.783034 -17.475973 12.006126 -1.340137 -23.019660 -8.109290 0.000000 -0.000000 0.000000 -0.047128 2.189473 7.712775 -0.634591 0.058027 -3.497229 2.740902 0.893649 0.135865 -2.236375 12.358291 -9.676463 -4.850418 20.840650 -4.211329 -24.286409 -0.974739 -0.676189 -46.510458 -11.590564 2.246861 12.216568 -26.791646 -6.223279 13.544469 -5.886784 -13.914469 21.027186 4.161929 5.560872 39.935025 7.433701 8.291351 -12.478961 20.544596 -4.351303 -5.618896 4.329230 2.368140 
-2.066477 0.655345 1.007995 52.964841 -3.808492 90.882517 3.225911 3.692213 -6.612169 -2.744427 7.657069 20.355718 2.911630 12.418290 -10.241070 0.000000 -0.000000 0.000000 -0.768226 -11.572479 -4.121826 -6.176750 -18.104863 12.969670 -1.825970 -23.511891 -7.969369 0.000000 -0.000000 0.000000 -0.283612 2.166810 7.367436 -0.185372 -0.378704 -3.513010 2.680094 0.469794 0.178468 -1.794485 10.387387 -10.108755 -4.669404 18.545529 -3.737533 -24.565135 -0.868995 -0.244591 -46.728859 -10.891045 1.879548 11.892126 -23.629112 -6.498139 14.699141 -6.050125 -13.586570 21.688690 4.027991 4.529545 39.510592 8.869960 7.306835 -14.140149 20.852437 -7.471262 -6.287240 4.393826 0.425296 
-2.068273 0.662263 1.008859 58.237442 -3.523058 91.276928 3.330052 4.035991 -6.206638 -2.701551 7.750065 20.130841 2.274027 11.423563 -8.232348 0.000000 -0.000000 0.000000 -0.785549 -11.781940 -4.007243 -5.737205 -18.887339 12.611753 -1.727027 -23.519320 -7.031806 0.000000 -0.000000 0.000000 -0.395429 2.510991 8.159105 0.059117 0.110799 -4.845375 2.781151 -0.375577 -0.125685 -1.504046 8.389092 -9.990289 -4.600025 15.977193 -3.562619 -25.092702 -0.076186 -0.123331 -47.328799 -9.855017 1.561403 10.717581 -21.120731 -5.019905 13.434042 -5.449518 -11.448680 22.201420 3.146176 3.716136 39.310847 9.854480 6.110632 -15.871140 21.931639 -11.193299 -8.585810 4.342717 -0.853160 
-2.070074 0.670915 1.009949 62.892091 -3.473197 91.428340 2.906840 4.271822 -5.259869 -3.214905 6.723605 16.939387 0.990920 9.878792 -6.575759 0.000000 -0.000000 0.000000 -0.983203 -11.683676 -4.021019 -6.005517 -19.798054 12.850848 -2.121601 -23.387794 -5.809599 0.000000 -0.000000 0.000000 -0.318873 2.319147 7.636435 0.109569 -0.423267 -3.213352 2.418418 -0.071583 -0.466168 -1.434175 6.770460 -10.208614 -4.490778 13.543365 -4.325079 -25.951792 -0.355890 0.159882 -47.301906 -8.273457 1.606619 10.865510 -18.787384 -4.530754 10.738192 -4.997242 -9.650560 22.863498 4.746594 3.885363 39.486178 11.098924 5.047214 -18.741176 22.009901 -15.409445 -6.300088 3.975752 -3.406027 
-2.069155 0.680876 1.010644 66.942490 -3.229813 91.790459 1.863899 4.237384 -4.386022 -2.821729 5.751974 11.876213 0.680633 9.283593 -5.385553 0.000000 -0.000000 0.000000 -1.216251 -11.758036 -4.147268 -6.152464 -20.866332 12.834070 -2.326579 -23.812893 -4.533113 0.000000 -0.000000 0.000000 -0.133143 2.458599 7.061028 -0.006924 -0.208281 -2.104260 2.288753 0.451405 -0.602819 -0.887629 4.785068 -9.931381 -4.482456 11.049236 -5.219223 -25.808454 0.143410 0.553538 -48.891978 -7.339845 2.201023 10.424128 -17.174822 -2.398498 7.450386 -4.405603 -8.526256 22.719248 4.893847 3.523658 39.658506 12.482894 4.396595 -19.826215 22.154112 -17.400742 -5.236375 3.614856 -4.476659 
-2.069527 0.691544 1.012529 70.339338 -2.979341 92.343337 0.791280 3.688982 -4.470769 -2.097693 5.399458 8.907169 1.646438 9.233577 -3.979192 0.000000 -0.000000 0.000000 -1.262743 -11.427483 -4.764244 -6.485803 -21.420532 12.856102 -2.989298 -24.420089 -2.695070 0.000000 -0.000000 0.000000 -0.012884 2.470555 7.458309 -0.201710 0.137904 -2.321279 2.316918 0.498849 -0.382774 -0.530121 2.839080 -10.413923 -4.126965 9.364418 -5.664269 -26.109805 0.866608 1.471567 -50.050458 -5.392303 2.925698 9.897427 -17.537961 -0.153745 6.626341 -4.204814 -7.958071 22.479776 5.993757 3.596582 39.662898 13.739842 4.604749 -19.908228 22.194044 -17.388322 -5.570433 3.283628 -4.855124 
-2.070291 0.702670 1.015460 73.081827 -2.372256 92.357962 0.170245 2.908746 -4.301697 -1.609608 4.304889 6.812163 1.969534 9.484683 -2.807955 0.000000 -0.000000 0.000000 -1.410706 -11.329295 -4.762210 -6.339338 -21.363341 13.036194 -2.964541 -24.371668 -1.346634 0.000000 -0.000000 0.000000 0.458271 2.663123 8.758017 -0.338274 0.671561 -2.259492 2.460918 0.590993 -0.475552 -0.253448 1.057709 -11.182814 -3.762406 7.410524 -6.051742 -26.523268 1.118720 2.292545 -51.012521 -3.264533 3.717470 8.365851 -17.765804 1.793174 7.594654 -5.057901 -7.460878 22.677079 7.585475 3.819346 38.435416 14.737514 4.490898 -18.940406 22.668114 -16.777514 -9.416147 4.128036 -2.836630 
-2.070726 0.713658 1.018179 75.597678 -1.866166 92.783494 -0.206083 2.303976 -4.973395 -1.409982 3.001637 5.884014 1.951918 9.161351 -1.920866 0.000000 -0.000000 0.000000 -1.975907 -11.446335 -4.982132 -5.571205 -20.510512 13.445926 -2.439133 -23.006278 -0.994492 0.000000 -0.000000 0.000000 0.828515 3.352173 8.889253 -0.288219 0.777047 -1.700625 2.439058 1.149012 -0.285027 0.151441 -0.886948 -11.185098 -3.282723 4.966082 -6.948734 -26.646543 1.258200 2.269521 -51.860647 -1.510498 5.139794 5.982843 -17.403829 5.162450 8.975252 -5.289749 -5.592803 22.707824 8.826264 4.021748 37.345583 15.311341 4.523485 -17.702365 23.834864 -14.679451 -10.682357 4.851350 -1.008303 
